<svg height="512" width="512" xmlns="http://www.w3.org/2000/svg"><path d="M0 176h512v320H0z" fill="#fffa50"/><path d="M512 176H0v-64c0-17.673 14.327-32 32-32h448c17.673 0 32 14.327 32 32z" fill="#ffce33"/><path d="M96 112v32c-35.199 0-64-28.801-64-64h32c0 17.6 14.4 32 32 32zm160 0v32c-35.199 0-64-28.801-64-64h32c0 17.6 14.4 32 32 32zm160 0v32c-35.199 0-64-28.801-64-64h32c0 17.6 14.4 32 32 32z" fill="#ffa65c"/><path d="M96 16c-35.199 0-64 28.801-64 64h32c0-17.6 14.4-32 32-32s32 14.4 32 32h32c0-35.199-28.801-64-64-64zm160 0c-35.199 0-64 28.801-64 64h32c0-17.6 14.4-32 32-32s32 14.4 32 32h32c0-35.199-28.801-64-64-64zm160 0c-35.199 0-64 28.801-64 64h32c0-17.6 14.4-32 32-32s32 14.4 32 32h32c0-35.199-28.801-64-64-64z" fill="#fffa50"/><path d="M320 208h64v64h-64zm96 0h64v64h-64zm-96 96h64v64h-64zm-96 0h64v64h-64zm-96 0h64v64h-64zm-96 0h64v64H32zm384 0h64v64h-64zm-288 96h64v64h-64zm-96 0h64v64H32z" fill="#ffce33"/></svg>