<svg height="512" width="512" xmlns="http://www.w3.org/2000/svg"><path d="M336 512H80c-17.673 0-32-14.327-32-32V96c0-17.673 14.327-32 32-32h256c17.673 0 32 14.327 32 32v384c0 17.673-14.327 32-32 32z" fill="#f9f"/><path d="M112 192h32v32h-32zm64 0h128v32H176zm-64 64h32v32h-32zm64 0h128v32H176zm-64 64h32v32h-32zm64 0h128v32H176zm-64 64h32v32h-32zm64 0h128v32H176z" fill="#d580ff"/><path d="M112 64h192v32H112z" fill="#96f"/><path d="M272 32h-32c0-17.674-14.326-32-32-32s-32 14.326-32 32h-32c-17.674 0-32 14.326-32 32h192c0-17.674-14.326-32-32-32zm192 416l-32 64-32-64z" fill="#d580ff"/><path d="M400 128h64v320h-64z" fill="#f9f"/><path d="M400 192h64v32h-64z" fill="#d580ff"/></svg>