<svg height="512" width="512" xmlns="http://www.w3.org/2000/svg"><path d="M160 128v32h80v65.613h32V160h80v-32z" fill="#ffce33"/><circle cx="256" cy="352" fill="#fffa50" r="160"/><path d="M256 400c-8.836 0-16-7.164-16-16h-32c0 20.832 13.416 38.426 32 45.053V464h32v-34.947c18.584-6.627 32-24.221 32-45.053 0-26.469-21.531-48-48-48-8.836 0-16-7.164-16-16 0-8.838 7.164-16 16-16s16 7.162 16 16h32c0-20.832-13.416-38.426-32-45.053V240h-32v34.947c-18.584 6.627-32 24.221-32 45.053 0 26.469 21.531 48 48 48 8.836 0 16 7.162 16 16 0 8.836-7.164 16-16 16zm0-336l-64 64L64 0h128z" fill="#ffce33"/><path d="M320 128H192l64-64z" fill="#ffa65c"/><path d="M448 0L320 128l-64-64 64-64z" fill="#ffce33"/></svg>