<svg height="512" width="512" xmlns="http://www.w3.org/2000/svg"><path d="M320 448H192L32 128h448z" fill="#4db5ff"/><path d="M384 128c0 38.4-16.961 72.641-43.52 96-22.721 19.84-52.16 32-84.48 32-70.721 0-128-57.279-128-128z" fill="#4d7cff"/><path d="M384 128H128c0-38.4 16.961-72.641 43.52-96C194.24 12.16 223.68 0 256 0c70.721 0 128 57.279 128 128z" fill="#4db5ff"/><path d="M416 512H96v-32c0-17.673 14.327-32 32-32h256c17.673 0 32 14.327 32 32zM256 48c0 8.961-7.039 16-16 16h-64c-8.961 0-16 7.039-16 16s7.039 16 16 16h32c8.961 0 16 7.039 16 16s-7.039 16-16 16h-80c0-38.4 16.961-72.641 43.52-96H240c8.961 0 16 7.039 16 16zm128 80c0 38.4-16.961 72.641-43.52 96H304c-8.961 0-16-7.039-16-16s7.039-16 16-16h32c8.961 0 16-7.039 16-16s-7.039-16-16-16h-64c-8.961 0-16-7.039-16-16s7.039-16 16-16z" fill="#80eaff"/></svg>